<svg width="1048" height="333" viewBox="0 0 1048 333" fill="none" xmlns="http://www.w3.org/2000/svg">
<path d="M423.444 296.453C406.173 274.854 396.367 242.542 394.031 199.535C391.708 156.772 397.958 123.716 412.791 100.372C427.624 77.0284 450.237 64.5306 480.642 62.8787C511.044 61.2312 534.885 71.2135 552.156 92.8123C569.427 114.42 579.228 146.603 581.551 189.367C583.874 232.135 577.623 265.244 562.799 288.712C547.975 312.179 525.358 324.735 494.961 326.387C464.555 328.034 440.723 318.061 423.448 296.453H423.444Z" fill="#FCFCFC"/>
<path d="M423.444 296.453C406.173 274.854 396.367 242.542 394.031 199.535C391.708 156.772 397.958 123.716 412.791 100.372C427.624 77.0284 450.237 64.5306 480.642 62.8787C511.044 61.2312 534.885 71.2135 552.156 92.8123C569.427 114.42 579.228 146.603 581.551 189.367C583.874 232.135 577.623 265.244 562.799 288.712C547.975 312.179 525.358 324.735 494.961 326.387C464.555 328.034 440.723 318.061 423.448 296.453H423.444Z" stroke="#008039" stroke-width="10" stroke-miterlimit="10"/>
<path d="M527.837 264.841C534.548 249.252 537.013 224.929 535.218 191.882C533.409 158.596 528.324 134.686 519.977 120.151C511.625 105.616 499.177 98.7999 482.642 99.6945C466.103 100.594 454.471 108.778 447.755 124.247C441.03 139.726 438.569 163.982 440.365 197.024C442.16 230.071 447.236 253.982 455.605 268.756C463.966 283.535 476.418 290.474 492.958 289.575C509.493 288.681 521.121 280.434 527.837 264.837V264.841Z" fill="#FCFCFC"/>
<path d="M527.837 264.841C534.548 249.252 537.013 224.929 535.218 191.882C533.409 158.596 528.324 134.686 519.977 120.151C511.625 105.616 499.177 98.7999 482.642 99.6945C466.103 100.594 454.471 108.778 447.755 124.247C441.03 139.726 438.569 163.982 440.365 197.024C442.16 230.071 447.236 253.982 455.605 268.756C463.966 283.535 476.418 290.474 492.958 289.575C509.493 288.681 521.121 280.434 527.837 264.837V264.841Z" stroke="#008039" stroke-width="10" stroke-miterlimit="10"/>
<path d="M633.085 195.784H330.777V199.81H633.085V195.784Z" fill="#008039"/>
<path d="M835.903 196.807H799.016C798.832 196.807 798.684 196.956 798.684 197.139V199.495C798.684 199.679 798.832 199.828 799.016 199.828H835.903C836.087 199.828 836.235 199.679 836.235 199.495V197.139C836.235 196.956 836.087 196.807 835.903 196.807Z" fill="#008039"/>
<path d="M164.53 196.807H127.643C127.459 196.807 127.311 196.956 127.311 197.139V199.495C127.311 199.679 127.459 199.828 127.643 199.828H164.53C164.714 199.828 164.862 199.679 164.862 199.495V197.139C164.862 196.956 164.714 196.807 164.53 196.807Z" fill="#008039"/>
<path d="M821.346 192.33L792.926 198.034L804.346 254.823L743.494 267.038L732.075 210.248L620.576 232.631L611.719 188.583L679.863 14.7033L753.1 0L782.385 145.611L810.805 139.907L821.346 192.33ZM705.641 78.8354L673.43 167.48L721.528 157.826L705.641 78.831V78.8354Z" fill="#008039"/>
<path d="M352.369 221.727L323.777 216.967L314.246 274.101L253.022 263.906L262.552 206.772L150.371 188.091L157.765 143.773L283.33 5.45605L357.015 17.728L332.572 164.23L361.164 168.99L352.365 221.732L352.369 221.727ZM284.611 74.5527L222.961 145.97L271.352 154.026L284.611 74.5527Z" fill="#008039"/>
<path d="M1048 199.823H0V332.684H1048V199.823Z" fill="#FCFCFC"/>
</svg>
