<svg width="188" height="48" viewBox="0 0 188 48" fill="none" xmlns="http://www.w3.org/2000/svg">
<g clip-path="url(#clip0_2011_101)">
<path d="M19.9594 10.3678C19.9594 4.79415 17.388 0 9.25711 0H0V20.5148H9.06832C16.8542 20.5148 19.9594 15.162 19.9594 10.3678ZM13.9312 10.1795C13.9312 14.3435 11.8285 15.9091 7.40178 15.9091H5.92403V4.60577H7.74681C12.4535 4.60577 13.9312 6.7365 13.9312 10.1795ZM29.1905 0H23.2599V20.5148H29.1905V0ZM46.891 20.5148H52.9191L45.7322 0H39.014L31.7294 20.5148H37.725L38.7275 17.2278H45.8494L46.8844 20.5148H46.891ZM42.2754 5.54121L44.5344 12.9338H40.0165L42.2754 5.54121Z" fill="#1D1D1B"/>
<path d="M17.388 34.254C17.388 29.3365 14.2177 26.9849 10.201 26.9849H0V47.4997H5.93054V41.7376H9.56958C13.6839 41.7376 17.3815 39.451 17.3815 34.254H17.388ZM11.3598 34.3775C11.3598 36.2549 10.2271 37.1318 8.09834 37.1318H5.93054V31.5906H8.22203C10.2596 31.5906 11.3598 32.4026 11.3598 34.3775Z" fill="#1D1D1B"/>
<path d="M37.3148 34.1307C37.3148 29.2131 34.0793 26.9915 30.1278 26.9915H19.9268V47.5063H25.8573V41.179H27.3936L32.0678 47.5063H38.6883L33.2591 40.458C35.6157 39.4576 37.3082 37.4178 37.3082 34.1307H37.3148ZM31.2866 34.2541C31.2866 36.1315 30.0953 36.8851 28.0251 36.8851H25.8573V31.5907H28.1488C30.1278 31.5907 31.2866 32.2793 31.2866 34.2541Z" fill="#1D1D1B"/>
<path d="M82.4808 34.254C82.4808 29.3365 79.3104 26.9849 75.2938 26.9849H65.0928V47.4997H71.0233V41.7376H74.6624C78.7766 41.7376 82.4743 39.451 82.4743 34.254H82.4808ZM76.4526 34.3775C76.4526 36.2549 75.3199 37.1318 73.1911 37.1318H71.0233V31.5906H73.3148C75.3524 31.5906 76.4526 32.4026 76.4526 34.3775Z" fill="#1D1D1B"/>
<path d="M99.3349 31.5906V26.9849H85.0261V47.4997H100.025V42.9004H90.9567V39.2626H97.4861V34.9751H90.9567V31.5906H99.3349Z" fill="#1D1D1B"/>
<path d="M120.928 34.1307C120.928 29.2131 117.693 26.9915 113.741 26.9915H103.54V47.5063H109.471V41.179H111.007L115.681 47.5063H122.302L116.873 40.458C119.229 39.4576 120.922 37.4178 120.922 34.1307H120.928ZM114.9 34.2541C114.9 36.1315 113.709 36.8851 111.639 36.8851H109.471V31.5907H111.762C113.741 31.5907 114.9 32.2793 114.9 34.2541Z" fill="#1D1D1B"/>
<path d="M140.386 31.5906V26.9849H122.308V31.5906H128.402V47.4997H134.332V31.5906H140.386Z" fill="#1D1D1B"/>
<path d="M148.895 26.9849H142.964V47.4997H148.895V26.9849Z" fill="#1D1D1B"/>
<path d="M167.976 31.5906V26.9849H153.667V47.4997H168.666V42.9004H159.597V39.2626H166.127V34.9751H159.597V31.5906H167.976Z" fill="#1D1D1B"/>
<path d="M180.409 31.6883C182.076 31.6883 184.146 32.1885 185.494 32.9095L186.75 28.4597C185.682 27.5827 183.202 26.4849 180.032 26.4849C174.323 26.4849 171.243 29.3691 171.243 33.0914C171.243 40.4516 181.724 39.0419 181.724 41.5494C181.724 42.7057 180.344 43.115 178.554 43.115C176.764 43.115 174.505 42.4589 172.936 41.6728L170.99 45.1158C171.647 45.8694 174.537 48.0001 179.654 48.0001C183.957 48.0001 188 45.7784 188 41.5819C188 34.2867 177.643 35.1897 177.643 33.033C177.643 32.5653 178.079 31.6883 180.403 31.6883H180.409Z" fill="#1D1D1B"/>
<path fill-rule="evenodd" clip-rule="evenodd" d="M40.5308 26.9719H61.1021V47.4997H40.5308V26.9719Z" fill="#008039"/>
<path fill-rule="evenodd" clip-rule="evenodd" d="M46.3115 32.7471H55.3147V41.7312H46.3115V32.7471Z" fill="white"/>
</g>
<defs>
<clipPath id="clip0_2011_101">
<rect width="188" height="48" fill="white"/>
</clipPath>
</defs>
</svg>
