<svg width="188" height="48" viewBox="0 0 188 48" fill="none" xmlns="http://www.w3.org/2000/svg">
<g clip-path="url(#clip0_5_426)">
<path d="M19.9594 10.3678C19.9594 4.79415 17.388 0 9.25711 0H0V20.5148H9.06832C16.8542 20.5148 19.9594 15.162 19.9594 10.3678ZM13.9312 10.1795C13.9312 14.3435 11.8285 15.9091 7.40178 15.9091H5.92403V4.60577H7.74681C12.4535 4.60577 13.9312 6.7365 13.9312 10.1795ZM29.1905 0H23.2599V20.5148H29.1905V0ZM46.891 20.5148H52.9191L45.7322 0H39.014L31.7294 20.5148H37.725L38.7275 17.2278H45.8494L46.8844 20.5148H46.891ZM42.2754 5.54121L44.5344 12.9338H40.0165L42.2754 5.54121Z" fill="white"/>
<path d="M17.388 34.2545C17.388 29.337 14.2177 26.9854 10.201 26.9854H0V47.5002H5.93054V41.7381H9.56958C13.6839 41.7381 17.3815 39.4514 17.3815 34.2545H17.388ZM11.3598 34.378C11.3598 36.2553 10.2271 37.1323 8.09834 37.1323H5.93054V31.5911H8.22203C10.2596 31.5911 11.3598 32.4031 11.3598 34.378Z" fill="white"/>
<path d="M37.3148 34.1305C37.3148 29.2129 34.0793 26.9912 30.1278 26.9912H19.9268V47.506H25.8573V41.1788H27.3936L32.0678 47.506H38.6883L33.2591 40.4577C35.6157 39.4573 37.3082 37.4175 37.3082 34.1305H37.3148ZM31.2866 34.2539C31.2866 36.1313 30.0953 36.8848 28.0251 36.8848H25.8573V31.5905H28.1488C30.1278 31.5905 31.2866 32.2791 31.2866 34.2539Z" fill="white"/>
<path d="M82.4808 34.2545C82.4808 29.337 79.3104 26.9854 75.2938 26.9854H65.0928V47.5002H71.0233V41.7381H74.6624C78.7766 41.7381 82.4743 39.4514 82.4743 34.2545H82.4808ZM76.4526 34.378C76.4526 36.2553 75.3199 37.1323 73.1911 37.1323H71.0233V31.5911H73.3148C75.3524 31.5911 76.4526 32.4031 76.4526 34.378Z" fill="white"/>
<path d="M99.3349 31.5911V26.9854H85.0261V47.5002H100.025V42.9009H90.9567V39.2631H97.4861V34.9756H90.9567V31.5911H99.3349Z" fill="white"/>
<path d="M120.928 34.1305C120.928 29.2129 117.693 26.9912 113.741 26.9912H103.54V47.506H109.471V41.1788H111.007L115.681 47.506H122.302L116.873 40.4577C119.229 39.4573 120.922 37.4175 120.922 34.1305H120.928ZM114.9 34.2539C114.9 36.1313 113.709 36.8848 111.639 36.8848H109.471V31.5905H111.762C113.741 31.5905 114.9 32.2791 114.9 34.2539Z" fill="white"/>
<path d="M140.386 31.5911V26.9854H122.308V31.5911H128.402V47.5002H134.332V31.5911H140.386Z" fill="white"/>
<path d="M148.895 26.9854H142.964V47.5002H148.895V26.9854Z" fill="white"/>
<path d="M167.976 31.5911V26.9854H153.667V47.5002H168.666V42.9009H159.597V39.2631H166.127V34.9756H159.597V31.5911H167.976Z" fill="white"/>
<path d="M180.409 31.6878C182.076 31.6878 184.146 32.188 185.494 32.9091L186.75 28.4592C185.682 27.5822 183.202 26.4844 180.032 26.4844C174.323 26.4844 171.243 29.3687 171.243 33.091C171.243 40.4511 181.724 39.0414 181.724 41.5489C181.724 42.7052 180.344 43.1145 178.554 43.1145C176.764 43.1145 174.505 42.4584 172.936 41.6724L170.99 45.1153C171.647 45.8689 174.537 47.9996 179.654 47.9996C183.957 47.9996 188 45.7779 188 41.5814C188 34.2862 177.643 35.1892 177.643 33.0325C177.643 32.5648 178.079 31.6878 180.403 31.6878H180.409Z" fill="white"/>
<path fill-rule="evenodd" clip-rule="evenodd" d="M40.5308 26.9717H61.1021V47.4995H40.5308V26.9717Z" fill="#008039"/>
<path fill-rule="evenodd" clip-rule="evenodd" d="M46.3115 32.7471H55.3147V41.7312H46.3115V32.7471Z" fill="white"/>
</g>
<defs>
<clipPath id="clip0_5_426">
<rect width="188" height="48" fill="white"/>
</clipPath>
</defs>
</svg>
