<svg width="30" height="40" viewBox="0 0 30 40" fill="none" xmlns="http://www.w3.org/2000/svg">
<path d="M15 0.3125C11.1709 0.3125 7.4987 1.83359 4.79115 4.54115C2.08359 7.2487 0.5625 10.9209 0.5625 14.75C0.5625 22.3756 13.425 38.5062 13.9763 39.2019C14.0992 39.3552 14.2551 39.4789 14.4323 39.5639C14.6095 39.6489 14.8035 39.693 15 39.693C15.1965 39.693 15.3905 39.6489 15.5677 39.5639C15.7449 39.4789 15.9008 39.3552 16.0238 39.2019C16.575 38.5062 29.4375 22.3756 29.4375 14.75C29.4375 10.9209 27.9164 7.2487 25.2089 4.54115C22.5013 1.83359 18.8291 0.3125 15 0.3125ZM15 18.6875C13.9616 18.6875 12.9466 18.3796 12.0833 17.8027C11.2199 17.2258 10.547 16.4059 10.1496 15.4466C9.75227 14.4873 9.6483 13.4317 9.85088 12.4133C10.0534 11.3949 10.5535 10.4594 11.2877 9.72519C12.0219 8.99096 12.9574 8.49095 13.9758 8.28838C14.9942 8.0858 16.0498 8.18977 17.0091 8.58713C17.9684 8.98449 18.7883 9.6574 19.3652 10.5208C19.9421 11.3841 20.25 12.3991 20.25 13.4375C20.25 14.8299 19.6969 16.1652 18.7123 17.1498C17.7277 18.1344 16.3924 18.6875 15 18.6875Z" fill="#008039"/>
</svg>
