<svg width="20" height="20" viewBox="0 0 20 20" fill="none" xmlns="http://www.w3.org/2000/svg">
<g clip-path="url(#clip0_96_17511)">
<path d="M1.24976 1.36059C-0.321907 2.99309 -0.000240855 4.72725 -0.000240855 9.99559C-0.000240855 14.3706 -0.763574 18.7564 3.23143 19.7889C4.47893 20.1098 15.5323 20.1098 16.7781 19.7873C18.4414 19.3581 19.7948 18.0089 19.9798 15.6564C20.0056 15.3281 20.0056 4.66892 19.9789 4.33392C19.7823 1.82809 18.2398 0.383921 16.2073 0.0914205C15.7414 0.0239205 15.6481 0.0039205 13.2581 -0.000246167C4.78059 0.0039205 2.92226 -0.37358 1.24976 1.36059Z" fill="#FF42B3"/>
<path d="M9.99785 2.61553C6.97202 2.61553 4.09869 2.34636 3.00119 5.16303C2.54785 6.32636 2.61369 7.83719 2.61369 10.0005C2.61369 11.8989 2.55285 13.683 3.00119 14.8372C4.09619 17.6555 6.99285 17.3855 9.99619 17.3855C12.8937 17.3855 15.8812 17.6872 16.992 14.8372C17.4462 13.6622 17.3795 12.1739 17.3795 10.0005C17.3795 7.11553 17.5387 5.25303 16.1395 3.85469C14.7229 2.43803 12.807 2.61553 9.99452 2.61553H9.99785ZM9.33619 3.94636C15.6479 3.93636 16.4512 3.23469 16.0079 12.9822C15.8504 16.4297 13.2254 16.0514 9.99869 16.0514C4.11535 16.0514 3.94619 15.883 3.94619 9.99719C3.94619 4.04303 4.41285 3.94969 9.33619 3.94469V3.94636ZM13.9395 5.17219C13.7046 5.17219 13.4793 5.26552 13.3131 5.43165C13.147 5.59777 13.0537 5.82309 13.0537 6.05803C13.0537 6.29296 13.147 6.51828 13.3131 6.6844C13.4793 6.85053 13.7046 6.94386 13.9395 6.94386C14.1745 6.94386 14.3998 6.85053 14.5659 6.6844C14.732 6.51828 14.8254 6.29296 14.8254 6.05803C14.8254 5.82309 14.732 5.59777 14.5659 5.43165C14.3998 5.26552 14.1745 5.17219 13.9395 5.17219ZM9.99785 6.20803C9.49987 6.20808 9.00677 6.30622 8.54672 6.49684C8.08666 6.68746 7.66866 6.96683 7.31657 7.319C6.60549 8.03023 6.20608 8.9948 6.20619 10.0005C6.2063 11.0063 6.60592 11.9707 7.31716 12.6818C8.02839 13.3929 8.99296 13.7923 9.99869 13.7922C11.0044 13.7921 11.9689 13.3925 12.68 12.6812C13.391 11.97 13.7905 11.0054 13.7904 9.99969C13.7902 8.99397 13.3906 8.02948 12.6794 7.31841C11.9682 6.60733 11.0036 6.20792 9.99785 6.20803ZM9.99785 7.53886C13.252 7.53886 13.2562 12.4622 9.99785 12.4622C6.74452 12.4622 6.73952 7.53886 9.99785 7.53886Z" fill="#2A2A2A"/>
</g>
<defs>
<clipPath id="clip0_96_17511">
<rect width="20" height="20" fill="white"/>
</clipPath>
</defs>
</svg>
