<svg width="20" height="20" viewBox="0 0 20 20" fill="none" xmlns="http://www.w3.org/2000/svg">
<circle cx="10" cy="10" r="10" fill="#F4F4F4"/>
<path d="M8.91091 12.2598V12.1142C8.91388 11.6147 8.95991 11.2165 9.049 10.9196C9.14105 10.6227 9.27468 10.383 9.44989 10.2003C9.62509 10.0176 9.83593 9.85205 10.0824 9.70362C10.2665 9.58944 10.4313 9.47098 10.5768 9.34824C10.7223 9.2255 10.8382 9.08991 10.9243 8.94148C11.0104 8.7902 11.0535 8.62179 11.0535 8.43625C11.0535 8.2393 11.0045 8.0666 10.9065 7.91817C10.8085 7.76974 10.6763 7.65557 10.51 7.57564C10.3467 7.49572 10.1656 7.45576 9.96659 7.45576C9.77357 7.45576 9.59094 7.49715 9.41871 7.57992C9.24647 7.65985 9.10542 7.77973 8.99555 7.93958C8.88567 8.09657 8.82628 8.2921 8.81737 8.52617H7C7.01485 7.95528 7.15739 7.4843 7.42762 7.11323C7.69785 6.7393 8.05568 6.46099 8.50111 6.27831C8.94655 6.09277 9.43801 6 9.9755 6C10.5664 6 11.0891 6.0942 11.5434 6.28259C11.9978 6.46813 12.3541 6.73787 12.6125 7.09182C12.8708 7.44577 13 7.8725 13 8.37203C13 8.70599 12.9421 9.00285 12.8263 9.26261C12.7134 9.51951 12.5546 9.74786 12.3497 9.94767C12.1448 10.1446 11.9027 10.323 11.6236 10.4829C11.389 10.617 11.196 10.7569 11.0445 10.9025C10.8961 11.048 10.7847 11.2165 10.7105 11.4077C10.6392 11.599 10.6021 11.8344 10.5991 12.1142V12.2598H8.91091ZM9.79287 15C9.49592 15 9.24202 14.9001 9.03118 14.7003C8.82331 14.4976 8.72086 14.255 8.72383 13.9724C8.72086 13.6927 8.82331 13.4529 9.03118 13.2531C9.24202 13.0533 9.49592 12.9534 9.79287 12.9534C10.075 12.9534 10.3229 13.0533 10.5367 13.2531C10.7506 13.4529 10.8589 13.6927 10.8619 13.9724C10.8589 14.1608 10.807 14.3335 10.706 14.4905C10.608 14.6446 10.4788 14.7688 10.3185 14.863C10.1581 14.9543 9.98292 15 9.79287 15Z" fill="#151515"/>
</svg>
