<svg width="868" height="868" viewBox="0 0 868 868" fill="none" xmlns="http://www.w3.org/2000/svg">
<g opacity="0.05">
<rect x="15" y="-15" width="179.822" height="179.822" rx="89.9109" transform="matrix(1 0 0 -1 329.089 508.911)" stroke="url(#paint0_linear_5_69)" stroke-width="30"/>
<rect x="15" y="-15" width="325.593" height="325.593" rx="162.796" transform="matrix(1 0 0 -1 256.204 581.797)" stroke="url(#paint1_linear_5_69)" stroke-width="30"/>
<rect x="10" y="-10" width="476.947" height="476.947" rx="238.473" transform="matrix(1 0 0 -1 185.527 662.473)" stroke="url(#paint2_linear_5_69)" stroke-width="20"/>
<rect x="8" y="-8" width="617.883" height="617.883" rx="308.941" transform="matrix(1 0 0 -1 117.059 734.941)" stroke="url(#paint3_linear_5_69)" stroke-width="16"/>
<rect x="5" y="-5" width="745.359" height="745.359" rx="372.679" transform="matrix(1 0 0 -1 56.3206 801.679)" stroke="url(#paint4_linear_5_69)" stroke-width="10"/>
<rect x="2" y="-2" width="864" height="864" rx="432" transform="matrix(1 0 0 -1 0 864)" stroke="url(#paint5_linear_5_69)" stroke-width="4"/>
</g>
<defs>
<linearGradient id="paint0_linear_5_69" x1="104.911" y1="0" x2="104.911" y2="209.822" gradientUnits="userSpaceOnUse">
<stop stop-color="white"/>
<stop offset="1" stop-color="white" stop-opacity="0"/>
</linearGradient>
<linearGradient id="paint1_linear_5_69" x1="177.796" y1="0" x2="177.796" y2="355.593" gradientUnits="userSpaceOnUse">
<stop stop-color="white"/>
<stop offset="1" stop-color="white" stop-opacity="0"/>
</linearGradient>
<linearGradient id="paint2_linear_5_69" x1="248.473" y1="0" x2="248.473" y2="496.947" gradientUnits="userSpaceOnUse">
<stop stop-color="white"/>
<stop offset="1" stop-color="white" stop-opacity="0"/>
</linearGradient>
<linearGradient id="paint3_linear_5_69" x1="316.941" y1="0" x2="316.941" y2="633.883" gradientUnits="userSpaceOnUse">
<stop stop-color="white"/>
<stop offset="1" stop-color="white" stop-opacity="0"/>
</linearGradient>
<linearGradient id="paint4_linear_5_69" x1="377.679" y1="0" x2="377.679" y2="755.359" gradientUnits="userSpaceOnUse">
<stop stop-color="white"/>
<stop offset="1" stop-color="white" stop-opacity="0"/>
</linearGradient>
<linearGradient id="paint5_linear_5_69" x1="434" y1="0" x2="434" y2="868" gradientUnits="userSpaceOnUse">
<stop stop-color="white"/>
<stop offset="1" stop-color="white" stop-opacity="0"/>
</linearGradient>
</defs>
</svg>
