<svg width="24" height="24" viewBox="0 0 24 24" fill="none" xmlns="http://www.w3.org/2000/svg">
<path d="M23.9917 11.4596C23.8788 8.39453 22.5755 5.4912 20.3541 3.35583C18.1327 1.22048 15.1649 0.0181795 12.0703 3.28094e-06H12.0119C9.92789 -0.00153047 7.87949 0.5347 6.06814 1.55593C4.25677 2.57716 2.74488 4.0482 1.68122 5.82431C0.61757 7.60042 0.0388064 9.6204 0.00188544 11.6855C-0.0350463 13.7506 0.471148 15.7896 1.47064 17.6019L0.409332 23.8963C0.407606 23.9091 0.408674 23.9223 0.41246 23.9348C0.416257 23.9472 0.422675 23.9588 0.431314 23.9686C0.439954 23.9784 0.4506 23.9863 0.462551 23.9917C0.474502 23.9972 0.487478 24 0.500615 24H0.518876L6.80029 22.6152C8.42323 23.3875 10.2006 23.7883 12.0009 23.7877C12.1153 23.7877 12.2298 23.7877 12.3441 23.7877C13.9278 23.7429 15.4869 23.3877 16.9312 22.7426C18.3756 22.0975 19.6768 21.1752 20.7598 20.0291C21.8426 18.8829 22.6857 17.5355 23.2405 16.0647C23.7952 14.5939 24.0505 13.0287 23.9917 11.4596ZM12.2845 21.7189C12.1895 21.7189 12.0946 21.7189 12.0009 21.7189C10.4098 21.7209 8.84151 21.3435 7.42831 20.6188L7.10699 20.4524L2.84717 21.4499L3.63341 17.1785L3.45084 16.8721C2.57889 15.3987 2.10924 13.7256 2.08813 12.0176C2.06701 10.3095 2.49519 8.6255 3.33046 7.13135C4.16574 5.6372 5.37931 4.38447 6.85168 3.49654C8.32399 2.60861 10.0043 2.11611 11.727 2.06756C11.8228 2.06756 11.919 2.06756 12.0156 2.06756C14.6166 2.07519 17.1106 3.09527 18.9601 4.90798C20.8095 6.7207 21.8665 9.18096 21.9032 11.7587C21.9399 14.3364 20.9535 16.8253 19.1563 18.689C17.3592 20.5527 14.8953 21.6421 12.2955 21.7225L12.2845 21.7189Z" fill="#008039"/>
<path d="M7.82876 6.15229C7.68056 6.15516 7.5343 6.1875 7.39882 6.24738C7.26335 6.30726 7.14136 6.39347 7.04018 6.50091C6.75411 6.79162 5.95448 7.49126 5.90824 8.9605C5.86199 10.4297 6.8977 11.8833 7.04256 12.0872C7.18741 12.2911 9.02278 15.4647 12.046 16.7518C13.8229 17.5105 14.6019 17.6409 15.107 17.6409C15.3151 17.6409 15.4721 17.6192 15.6364 17.6095C16.1902 17.5757 17.4402 16.9412 17.7129 16.2512C17.9854 15.5613 18.0037 14.9581 17.9319 14.8375C17.8601 14.7168 17.6629 14.63 17.366 14.4756C17.0689 14.3211 15.6122 13.5492 15.3383 13.4405C15.2367 13.3937 15.1274 13.3655 15.0158 13.3573C14.943 13.3611 14.8722 13.3824 14.8097 13.4195C14.7471 13.4565 14.6946 13.508 14.6567 13.5697C14.4133 13.87 13.8547 14.5226 13.6672 14.7108C13.6262 14.7576 13.5758 14.7952 13.5192 14.8214C13.4626 14.8476 13.4011 14.8617 13.3385 14.8628C13.2234 14.8577 13.1108 14.8277 13.0087 14.7747C12.1263 14.4033 11.3217 13.8715 10.6366 13.2065C9.99656 12.5813 9.45348 11.8655 9.02516 11.0823C8.8597 10.7783 9.02516 10.6215 9.17616 10.4792C9.32706 10.3369 9.48896 10.1402 9.64471 9.97015C9.77253 9.82486 9.8791 9.66242 9.96118 9.48764C10.0037 9.40652 10.0251 9.3162 10.0236 9.22482C10.0221 9.13343 9.99774 9.04385 9.95266 8.96412C9.88082 8.81213 9.3441 7.31756 9.09214 6.71804C8.88763 6.20538 8.6443 6.18849 8.43127 6.1728C8.256 6.16074 8.05516 6.15471 7.85432 6.14868H7.82876" fill="#008039"/>
</svg>
